<?xml version="1.0" standalone="no"?>
<svg xmlns="http://www.w3.org/2000/svg" viewBox="0 0 201.048 36" width="201.048" height="36"><g fill="#e9967a" color="#e9967a" transform="translate(0 3.9999999999999982) scale(0.2800001)"><svg width="100.0" height="100.0" x="0.0" y="0.0" viewBox="0 0 100 100"><g><path d="M14,64l0,12c-0.00339718,0.0951189 -0.00340151,0.19042 -0.0101915,0.285357c-0.020376,0.284894 -0.0713676,0.567521 -0.151837,0.841573c-0.161056,0.548506 -0.440614,1.06048 -0.814974,1.49251c-0.374359,0.432034 -0.841336,0.781608 -1.36134,1.01909c-0.259811,0.118652 -0.532305,0.209346 -0.811399,0.270059c-0.248275,0.054009 -0.312761,0.0541128 -0.564904,0.081221c-0.0951189,0.00339718 -0.190238,0.00679436 -0.285357,0.0101915c-0.253435,-0.00905144 -0.317764,-0.00455459 -0.569259,-0.0407142c-0.282714,-0.0406482 -0.560984,-0.111672 -0.828597,-0.211487c-0.625246,-0.233205 -1.18814,-0.624028 -1.62514,-1.12836c-0.374359,-0.432034 -0.653918,-0.944007 -0.814974,-1.49251c-0.0804689,-0.274052 -0.131461,-0.55668 -0.151837,-0.841573c-0.00679003,-0.0949371 -0.00679436,-0.190238 -0.0101915,-0.285357l0,-52c0.00905144,-0.253435 0.00455459,-0.317764 0.0407142,-0.569259c0.0677706,-0.471355 0.22035,-0.929784 0.44857,-1.34774c0.182533,-0.334285 0.412971,-0.642113 0.682289,-0.911431c0.269318,-0.269318 0.577147,-0.499756 0.911431,-0.682289c0.501736,-0.273969 1.06143,-0.438311 1.63164,-0.479093c0.665621,-0.0476061 1.34,0.0740653 1.94702,0.35128c0.433169,0.197822 0.830041,0.473375 1.16677,0.810101c0.5397,0.5397 0.91792,1.23236 1.08016,1.97817c0.0404895,0.186127 0.0676323,0.374909 0.081221,0.564904c0.00679003,0.0949371 0.00679436,0.190238 0.0101915,0.285357l0,32l76,0c0.116208,0.00507374 0.232747,0.00508339 0.348623,0.0152212c0.347796,0.0304282 0.691388,0.106601 1.01946,0.226008c0.547172,0.199154 1.04861,0.518604 1.46035,0.930343c0.41174,0.41174 0.731189,0.913175 0.930343,1.46035c0.119408,0.32807 0.19558,0.671662 0.226008,1.01946c0.0101378,0.115876 0.0101475,0.232415 0.0152212,0.348623l0,16c-0.00507374,0.116208 -0.00508339,0.232747 -0.0152212,0.348623c-0.0202949,0.231972 -0.0608073,0.461729 -0.121075,0.686653c-0.150707,0.562447 -0.425238,1.08982 -0.799526,1.53587c-0.374287,0.446058 -0.845973,0.807995 -1.3737,1.05408c-0.316414,0.147546 -0.65206,0.253375 -0.99588,0.314c-0.114551,0.0201985 -0.230646,0.0303652 -0.34597,0.0455478c-0.116208,0.00507374 -0.232415,0.0101475 -0.348623,0.0152212c-0.116208,-0.00507374 -0.232747,-0.00508339 -0.348623,-0.0152212c-0.347796,-0.0304282 -0.691388,-0.106601 -1.01946,-0.226008c-0.547172,-0.199154 -1.04861,-0.518604 -1.46035,-0.930343c-0.41174,-0.41174 -0.731189,-0.913175 -0.930343,-1.46035c-0.119408,-0.32807 -0.19558,-0.671662 -0.226008,-1.01946c-0.0101378,-0.115876 -0.0101475,-0.232415 -0.0152212,-0.348623l0,-12l-72,0ZM54,52c-0.20662,-0.00601204 -0.258801,-0.00301875 -0.464372,-0.0270466c-0.30821,-0.0360246 -0.612114,-0.108051 -0.903709,-0.214183c-0.510589,-0.185839 -0.981662,-0.476402 -1.37689,-0.849276c-0.451867,-0.426314 -0.801331,-0.957648 -1.0138,-1.54141c-0.106132,-0.291595 -0.178158,-0.595499 -0.214183,-0.903709c-0.0240278,-0.205571 -0.0210345,-0.257751 -0.0270466,-0.464372l0,-16c0.00601204,-0.20662 0.00301875,-0.258801 0.0270466,-0.464372c0.0360246,-0.30821 0.108051,-0.612114 0.214183,-0.903709c0.212473,-0.583766 0.561937,-1.1151 1.0138,-1.54141c0.395224,-0.372874 0.866297,-0.663437 1.37689,-0.849276c0.291595,-0.106132 0.595499,-0.178158 0.903709,-0.214183c0.205571,-0.0240278 0.257751,-0.0210345 0.464372,-0.0270466c9.06522,0 18.1306,-0.0552891 27.1957,0.000842172c0.394221,0.00733378 0.787329,0.029221 1.17928,0.0730188c0.872839,0.0975328 1.73467,0.291661 2.56506,0.577708c1.56995,0.540812 3.02187,1.41094 4.23886,2.54063c1.39954,1.29913 2.47734,2.93253 3.12125,4.73025c0.312541,0.872581 0.523071,1.78142 0.626015,2.70255c0.043802,0.391934 0.0656793,0.785021 0.0730261,1.17922l0.000847308,0.136073l0,8.05971l-0.00676737,0.232579c-0.0180158,0.205921 -0.0180616,0.258187 -0.0540016,0.462013c-0.0404112,0.229183 -0.100866,0.454804 -0.180461,0.673488c-0.185839,0.510589 -0.476402,0.981662 -0.849276,1.37689c-0.426314,0.451867 -0.957648,0.801331 -1.54141,1.0138c-0.291595,0.106132 -0.595499,0.178158 -0.903709,0.214183c-0.205571,0.0240278 -0.257751,0.0210345 -0.464372,0.0270466c-11.6667,0 -23.3333,0 -35,0ZM22,52c-0.177654,-0.00393103 -0.353048,-0.0116397 -0.529415,-0.0351899c-0.468013,-0.0624931 -0.924188,-0.208485 -1.34152,-0.429334c-0.312917,-0.165593 -0.60358,-0.372866 -0.862086,-0.61476c-0.431172,-0.403464 -0.770492,-0.902283 -0.987384,-1.45151c-0.216892,-0.549227 -0.309949,-1.1453 -0.270785,-1.7345c0.0273968,-0.412172 0.11906,-0.819707 0.270785,-1.20391c0.173428,-0.439163 0.425041,-0.846717 0.739946,-1.19854c0.354344,-0.395881 0.787608,-0.719539 1.26774,-0.947032c0.373299,-0.176873 0.773857,-0.295363 1.1833,-0.350036c0.176368,-0.0235501 0.351762,-0.0312588 0.529415,-0.0351899l16,0l0,-16l0.00391509,-0.176933c0.0117854,-0.177306 0.0272448,-0.352187 0.0585732,-0.527341c0.0831337,-0.464791 0.249161,-0.914061 0.488253,-1.32122c0.179272,-0.305286 0.3992,-0.586496 0.652291,-0.834049c0.422141,-0.412903 0.935482,-0.729827 1.49376,-0.922213c0.502313,-0.173098 1.03836,-0.244676 1.56849,-0.209439c0.412172,0.0273968 0.819707,0.11906 1.20391,0.270785c0.439163,0.173428 0.846717,0.425041 1.19854,0.739946c0.395881,0.354344 0.719539,0.787608 0.947032,1.26774c0.176873,0.373299 0.295363,0.773857 0.350036,1.1833c0.0235501,0.176368 0.0312588,0.351762 0.0351899,0.529415l0,20c-0.00338303,0.155042 -0.00169554,0.194024 -0.0152212,0.348623c-0.0304271,0.347783 -0.106605,0.6914 -0.226008,1.01946c-0.219139,0.60208 -0.584022,1.14816 -1.05641,1.58103c-0.429298,0.393379 -0.944212,0.690665 -1.49954,0.865758c-0.277444,0.0874776 -0.5644,0.144557 -0.8542,0.169911c-0.154599,0.0135257 -0.193581,0.0118382 -0.348623,0.0152212c-6.66667,0 -13.3333,0 -20,0ZM26,24c4.41828,0 8,3.58172 8,8c0,4.41828 -3.58172,8 -8,8c-4.41828,0 -8,-3.58172 -8,-8c0,-4.41828 3.58172,-8 8,-8Z" style="" fill="currentColor"></path></g></svg></g><path fill="#e9967a" fill-rule="nonzero" d="M6.31 0.02Q9.12 0.02 10.44 1.33Q11.76 2.64 11.76 4.68L11.76 4.68Q11.76 6.12 11.14 7.38Q10.51 8.64 9.28 9.43Q8.04 10.22 6.31 10.22L6.31 10.22Q5.30 10.22 4.63 9.96L4.63 9.96Q4.58 9.67 4.58 9.50L4.58 9.50Q4.58 9.22 4.66 8.98L4.66 8.98Q5.26 9.12 5.93 9.12L5.93 9.12Q9.31 9.12 9.31 5.38L9.31 5.38Q9.31 3.36 8.33 2.22Q7.34 1.08 5.26 1.08L5.26 1.08Q4.73 1.08 4.03 1.22L4.03 1.22L4.03 12.77Q4.03 13.80 4.25 14.34Q4.46 14.88 4.91 15.08Q5.35 15.29 6.17 15.34L6.17 15.34Q6.29 15.67 6.29 16.37L6.29 16.37Q5.18 16.30 3.26 16.30L3.26 16.30Q0.94 16.30 0 16.37L0 16.37Q0 15.67 0.12 15.34L0.12 15.34Q1.08 15.29 1.43 14.87Q1.78 14.45 1.78 13.25L1.78 13.25L1.78 3.12Q1.78 1.92 1.43 1.50Q1.08 1.08 0.12 1.03L0.12 1.03Q0 0.70 0 0L0 0Q1.25 0.07 3.26 0.07L3.26 0.07L6.31 0.02ZM25.94 15.26Q26.06 15.62 26.06 16.34L26.06 16.34Q25.10 16.30 23.59 16.30L23.59 16.30Q22.01 16.30 21.05 16.34L21.05 16.34Q21.05 15.60 21.19 15.26L21.19 15.26Q21.74 15.19 21.97 15.06Q22.20 14.93 22.20 14.66L22.20 14.66Q22.20 14.45 21.96 13.92L21.96 13.92L21.48 12.89Q18.02 12.89 16.03 13.01L16.03 13.01L15.77 13.63Q15.53 14.18 15.53 14.50L15.53 14.50Q15.53 15.17 16.51 15.26L16.51 15.26Q16.66 15.70 16.66 16.34L16.66 16.34Q15.74 16.30 14.66 16.30L14.66 16.30Q13.73 16.30 12.96 16.34L12.96 16.34Q12.96 15.77 13.10 15.26L13.10 15.26Q13.63 15.17 13.92 14.82Q14.21 14.47 14.69 13.42L14.69 13.42L18.82 4.27Q19.27 4.18 19.78 4.18L19.78 4.18L24.19 13.34Q24.72 14.45 25.09 14.83Q25.46 15.22 25.94 15.26L25.94 15.26ZM16.51 11.90L21 11.90L19.56 8.88Q18.94 7.61 18.70 6.86L18.70 6.86Q18.50 7.46 18.23 8.05Q17.95 8.64 17.88 8.78L17.88 8.78L16.51 11.90ZM38.81 13.49Q39.46 14.45 40.14 14.84Q40.82 15.24 41.83 15.29L41.83 15.29Q41.83 15.98 41.74 16.30L41.74 16.30Q39.70 16.30 38.28 16.46L38.28 16.46Q38.11 16.18 37.63 15.46L37.63 15.46L36.55 13.70Q35.66 12.22 34.20 11.28L34.20 11.28L33.43 11.30L32.74 11.28L32.74 13.46Q32.74 14.26 32.86 14.64Q32.98 15.02 33.25 15.17Q33.53 15.31 34.10 15.34L34.10 15.34Q34.20 15.62 34.20 16.34L34.20 16.34Q33.31 16.30 31.58 16.30L31.58 16.30Q30.31 16.30 28.97 16.34L28.97 16.34Q28.97 15.67 29.09 15.34L29.09 15.34Q29.69 15.29 29.99 15.14Q30.29 15 30.41 14.64Q30.53 14.28 30.53 13.56L30.53 13.56L30.53 7.06Q30.53 6.02 30.24 5.69Q29.95 5.35 29.09 5.30L29.09 5.30Q28.97 4.94 28.97 4.25L28.97 4.25Q29.88 4.30 31.61 4.30L31.61 4.30L33.34 4.27Q34.58 4.22 35.23 4.22L35.23 4.22Q37.54 4.22 38.71 5.11Q39.89 6 39.89 7.39L39.89 7.39Q39.89 8.78 39 9.68Q38.11 10.58 36.53 10.90L36.53 10.90Q37.13 11.26 37.52 11.72Q37.92 12.19 38.81 13.49L38.81 13.49ZM33.65 10.10Q35.38 10.10 36.48 9.49Q37.58 8.88 37.58 7.70L37.58 7.70Q37.58 5.26 34.22 5.26L34.22 5.26Q33.46 5.26 32.74 5.40L32.74 5.40L32.74 10.03Q33.24 10.10 33.65 10.10L33.65 10.10ZM44.76 16.34Q44.76 15.60 44.88 15.26L44.88 15.26Q45.48 15.22 45.78 15.07Q46.08 14.93 46.20 14.57Q46.32 14.21 46.32 13.49L46.32 13.49L46.32 7.08Q46.32 6.38 46.20 6.02Q46.08 5.66 45.78 5.52Q45.48 5.38 44.88 5.33L44.88 5.33Q44.76 4.97 44.76 4.25L44.76 4.25Q46.30 4.30 47.45 4.30L47.45 4.30Q48.41 4.30 50.09 4.25L50.09 4.25Q50.09 4.99 49.99 5.33L49.99 5.33Q49.13 5.38 48.83 5.71Q48.53 6.05 48.53 7.08L48.53 7.08L48.53 13.49Q48.53 14.52 48.83 14.87Q49.13 15.22 49.99 15.26L49.99 15.26Q50.09 15.62 50.09 16.34L50.09 16.34Q48.46 16.30 47.45 16.30L47.45 16.30Q46.25 16.30 44.76 16.34L44.76 16.34ZM58.73 16.46Q57.41 16.46 56.34 16.20Q55.27 15.94 54.02 15.41L54.02 15.41Q54.29 13.80 54.22 12.62L54.22 12.62Q54.74 12.46 55.51 12.46L55.51 12.46Q55.56 13.94 56.46 14.62Q57.36 15.29 58.99 15.29L58.99 15.29Q60.38 15.29 61.19 14.86Q61.99 14.42 61.99 13.70L61.99 13.70Q61.99 13.20 61.60 12.83Q61.20 12.46 60.64 12.20Q60.07 11.95 58.99 11.57L58.99 11.57Q57.50 11.06 56.60 10.62Q55.70 10.18 55.04 9.40Q54.38 8.62 54.38 7.44L54.38 7.44Q54.38 5.83 55.60 4.99Q56.81 4.15 58.92 4.15L58.92 4.15Q60.05 4.15 61.16 4.37Q62.28 4.58 62.90 4.92L62.90 4.92Q62.88 5.18 62.88 5.74L62.88 5.74Q62.88 6.82 63.02 7.44L63.02 7.44Q62.52 7.70 61.70 7.70L61.70 7.70Q61.37 6.34 60.61 5.80Q59.86 5.26 58.75 5.26L58.75 5.26Q57.70 5.26 57.04 5.62Q56.38 5.98 56.38 6.67L56.38 6.67Q56.38 7.46 57.14 7.94Q57.91 8.42 59.54 9L59.54 9Q60.94 9.48 61.82 9.91Q62.71 10.34 63.34 11.08Q63.96 11.81 63.96 12.91L63.96 12.91Q63.96 14.50 62.66 15.48Q61.37 16.46 58.73 16.46L58.73 16.46ZM75.65 13.30Q75.65 15.74 75.32 17.26Q75 18.77 74.00 19.97Q73.01 21.17 70.99 22.27L70.99 22.27Q70.66 22.08 70.58 21.65L70.58 21.65Q72.02 20.42 72.71 19.04Q73.39 17.66 73.39 15.48L73.39 15.48L73.39 3.12Q73.39 1.92 73.04 1.50Q72.70 1.08 71.74 1.03L71.74 1.03Q71.62 0.70 71.62 0L71.62 0Q72.67 0.07 74.52 0.07L74.52 0.07Q76.56 0.07 77.42 0L77.42 0Q77.42 0.70 77.30 1.03L77.30 1.03Q76.37 1.08 76.01 1.51Q75.65 1.94 75.65 3.12L75.65 3.12L75.65 13.30ZM92.47 15.26Q92.59 15.62 92.59 16.34L92.59 16.34Q91.63 16.30 90.12 16.30L90.12 16.30Q88.54 16.30 87.58 16.34L87.58 16.34Q87.58 15.60 87.72 15.26L87.72 15.26Q88.27 15.19 88.50 15.06Q88.73 14.93 88.73 14.66L88.73 14.66Q88.73 14.45 88.49 13.92L88.49 13.92L88.01 12.89Q84.55 12.89 82.56 13.01L82.56 13.01L82.30 13.63Q82.06 14.18 82.06 14.50L82.06 14.50Q82.06 15.17 83.04 15.26L83.04 15.26Q83.18 15.70 83.18 16.34L83.18 16.34Q82.27 16.30 81.19 16.30L81.19 16.30Q80.26 16.30 79.49 16.34L79.49 16.34Q79.49 15.77 79.63 15.26L79.63 15.26Q80.16 15.17 80.45 14.82Q80.74 14.47 81.22 13.42L81.22 13.42L85.34 4.27Q85.80 4.18 86.30 4.18L86.30 4.18L90.72 13.34Q91.25 14.45 91.62 14.83Q91.99 15.22 92.47 15.26L92.47 15.26ZM83.04 11.90L87.53 11.90L86.09 8.88Q85.46 7.61 85.22 6.86L85.22 6.86Q85.03 7.46 84.76 8.05Q84.48 8.64 84.41 8.78L84.41 8.78L83.04 11.90ZM107.14 4.30Q108.05 4.30 109.15 4.25L109.15 4.25Q109.15 4.97 109.06 5.33L109.06 5.33Q108.55 5.38 108.29 5.59Q108.02 5.81 107.92 6.32Q107.81 6.84 107.81 7.85L107.81 7.85L107.81 16.32Q107.50 16.46 106.82 16.46L106.82 16.46L98.21 6.94L98.21 12.70Q98.21 13.73 98.34 14.26Q98.47 14.78 98.78 15Q99.10 15.22 99.70 15.26L99.70 15.26Q99.82 15.65 99.82 16.34L99.82 16.34Q98.52 16.30 97.68 16.30L97.68 16.30Q96.55 16.30 95.50 16.34L95.50 16.34Q95.50 15.65 95.62 15.26L95.62 15.26Q96.22 15.22 96.52 15Q96.82 14.78 96.95 14.26Q97.08 13.73 97.08 12.70L97.08 12.70L97.08 5.69L97.06 5.66Q96.89 5.50 96.62 5.44Q96.36 5.38 95.62 5.33L95.62 5.33Q95.50 4.90 95.50 4.25L95.50 4.25Q96.36 4.30 97.18 4.30L97.18 4.30Q97.92 4.30 98.69 4.25L98.69 4.25L106.68 13.20L106.68 7.85Q106.68 6.84 106.55 6.32Q106.42 5.81 106.10 5.59Q105.79 5.38 105.17 5.33L105.17 5.33Q105.07 4.78 105.07 4.25L105.07 4.25Q106.27 4.30 107.14 4.30L107.14 4.30ZM112.80 16.34Q112.80 15.60 112.92 15.26L112.92 15.26Q113.52 15.22 113.82 15.07Q114.12 14.93 114.24 14.57Q114.36 14.21 114.36 13.49L114.36 13.49L114.36 7.08Q114.36 6.38 114.24 6.02Q114.12 5.66 113.82 5.52Q113.52 5.38 112.92 5.33L112.92 5.33Q112.80 4.97 112.80 4.25L112.80 4.25Q114.34 4.30 115.49 4.30L115.49 4.30Q116.45 4.30 118.13 4.25L118.13 4.25Q118.13 4.99 118.03 5.33L118.03 5.33Q117.17 5.38 116.87 5.71Q116.57 6.05 116.57 7.08L116.57 7.08L116.57 13.49Q116.57 14.52 116.87 14.87Q117.17 15.22 118.03 15.26L118.03 15.26Q118.13 15.62 118.13 16.34L118.13 16.34Q116.50 16.30 115.49 16.30L115.49 16.30Q114.29 16.30 112.80 16.34L112.80 16.34ZM132.43 4.25Q132.36 5.54 132.60 7.37L132.60 7.37Q132.10 7.58 131.42 7.58L131.42 7.58Q131.38 6.43 130.81 5.88Q130.25 5.33 129.05 5.33L129.05 5.33L127.99 5.33L127.99 13.56Q127.99 14.30 128.12 14.65Q128.26 15 128.60 15.14Q128.95 15.29 129.67 15.34L129.67 15.34Q129.79 15.62 129.79 16.34L129.79 16.34Q128.02 16.30 126.89 16.30L126.89 16.30Q125.50 16.30 123.91 16.34L123.91 16.34Q123.91 15.62 124.03 15.34L124.03 15.34Q124.75 15.29 125.12 15.14Q125.50 15 125.64 14.64Q125.78 14.28 125.78 13.56L125.78 13.56L125.78 5.33L124.80 5.33Q123.84 5.33 123.32 5.58Q122.81 5.83 122.57 6.29Q122.33 6.74 122.16 7.58L122.16 7.58Q121.39 7.58 121.03 7.37L121.03 7.37Q121.39 5.74 121.39 4.25L121.39 4.25Q122.64 4.30 126.89 4.30L126.89 4.30Q131.21 4.30 132.43 4.25L132.43 4.25ZM142.01 16.51Q139.94 16.51 138.36 15.74Q136.78 14.98 135.90 13.58Q135.02 12.19 135.02 10.34L135.02 10.34Q135.02 8.52 135.90 7.10Q136.78 5.69 138.37 4.91Q139.97 4.13 142.06 4.13L142.06 4.13Q144.12 4.13 145.70 4.90Q147.29 5.66 148.16 7.07Q149.04 8.47 149.04 10.30L149.04 10.30Q149.04 12.14 148.16 13.55Q147.29 14.95 145.69 15.73Q144.10 16.51 142.01 16.51L142.01 16.51ZM142.34 15.41Q144.29 15.41 145.43 14.11Q146.57 12.82 146.57 10.66L146.57 10.66Q146.57 9.10 145.94 7.86Q145.32 6.62 144.20 5.93Q143.09 5.23 141.70 5.23L141.70 5.23Q139.75 5.23 138.62 6.54Q137.50 7.85 137.50 9.98L137.50 9.98Q137.50 11.59 138.12 12.83Q138.74 14.06 139.85 14.74Q140.95 15.41 142.34 15.41L142.34 15.41ZM162.02 13.49Q162.67 14.45 163.36 14.84Q164.04 15.24 165.05 15.29L165.05 15.29Q165.05 15.98 164.95 16.30L164.95 16.30Q162.91 16.30 161.50 16.46L161.50 16.46Q161.33 16.18 160.85 15.46L160.85 15.46L159.77 13.70Q158.88 12.22 157.42 11.28L157.42 11.28L156.65 11.30L155.95 11.28L155.95 13.46Q155.95 14.26 156.07 14.64Q156.19 15.02 156.47 15.17Q156.74 15.31 157.32 15.34L157.32 15.34Q157.42 15.62 157.42 16.34L157.42 16.34Q156.53 16.30 154.80 16.30L154.80 16.30Q153.53 16.30 152.18 16.34L152.18 16.34Q152.18 15.67 152.30 15.34L152.30 15.34Q152.90 15.29 153.20 15.14Q153.50 15 153.62 14.64Q153.74 14.28 153.74 13.56L153.74 13.56L153.74 7.06Q153.74 6.02 153.46 5.69Q153.17 5.35 152.30 5.30L152.30 5.30Q152.18 4.94 152.18 4.25L152.18 4.25Q153.10 4.30 154.82 4.30L154.82 4.30L156.55 4.27Q157.80 4.22 158.45 4.22L158.45 4.22Q160.75 4.22 161.93 5.11Q163.10 6 163.10 7.39L163.10 7.39Q163.10 8.78 162.22 9.68Q161.33 10.58 159.74 10.90L159.74 10.90Q160.34 11.26 160.74 11.72Q161.14 12.19 162.02 13.49L162.02 13.49ZM156.86 10.10Q158.59 10.10 159.70 9.49Q160.80 8.88 160.80 7.70L160.80 7.70Q160.80 5.26 157.44 5.26L157.44 5.26Q156.67 5.26 155.95 5.40L155.95 5.40L155.95 10.03Q156.46 10.10 156.86 10.10L156.86 10.10Z" transform="translate(36, 9.852)"></path></svg>